<svg xmlns="http://www.w3.org/2000/svg" width="150" height="170" viewBox="0 0 150 170">
  <g fill="none" fill-rule="evenodd">
    <g transform="translate(0 20)">
      <circle cx="75" cy="75" r="75" fill="#000"/>
      <circle cx="75" cy="75" r="70" fill="#FFF"/>
    </g>
    <path fill="#000" d="M80.2251565 95.3229276C87.976745 91.1395436 95.4016928 89.0478516 102.5 89.0478516 109.606358 89.0478516 116.738545 90.8427383 123.896562 94.4325118 124.57296 94.7717107 125 95.4636056 125 96.2202894L125 99.5306749C124.999992 100.63524 124.104565 101.530667 123 101.530667 122.66883 101.530667 122.342842 101.44843 122.051301 101.291339 115.534201 97.7797302 109.0171 96.0239258 102.5 96.0239258 95.841184 96.0239258 89.1823681 97.856921 82.5235521 101.522911 81.5559343 102.055604 80.3396854 101.703053 79.8069726 100.735446 79.6904689 100.523832 79.6132659 100.292861 79.5791034 100.053724L79.1951152 97.3658061C79.0766267 96.5363085 79.48777 95.720881 80.2251565 95.3229276zM24.2251565 95.275076C31.976745 91.091692 39.4016928 89 46.5 89 53.6063581 89 60.7385454 90.7948867 67.896562 94.3846602 68.5729601 94.7238592 69 95.4157541 69 96.1724378L69 99.4828234C68.9999918 100.587388 68.104565 101.482815 67 101.482815 66.6688298 101.482815 66.3428424 101.400579 66.0513014 101.243488 59.5342009 97.7318787 53.0171005 95.9760742 46.5 95.9760742 39.841184 95.9760742 33.1823681 97.8090694 26.5235521 101.47506 25.5559343 102.007752 24.3396854 101.655201 23.8069726 100.687595 23.6904689 100.47598 23.6132659 100.24501 23.5791034 100.005872L23.1951152 97.3179545C23.0766267 96.488457 23.48777 95.6730294 24.2251565 95.275076zM27.5 77C42.6878306 77 55 64.6878306 55 49.5 55 39.3747796 45.8333333 22.8747796 27.5 0 9.16666667 22.8747796 0 39.3747796 0 49.5 0 64.6878306 12.3121694 77 27.5 77z"/>
    <path fill="#FFF" d="M27.5,75 C41.5832611,75 53,63.3274238 53,48.9285714 C53,39.3293365 44.5,23.6864793 27.5,2 C10.5,23.6864793 2,39.3293365 2,48.9285714 C2,63.3274238 13.4167389,75 27.5,75 Z"/>
    <path fill="#000" d="M75.9486703,124 C92.2795487,125.232418 102.25841,128.565751 105.885254,134 C78.2731845,129.747606 72.9678757,129.747606 45.8852539,134 C52.0616913,128.215621 62.0828301,124.882287 75.9486703,124 Z"/>
  </g>
</svg>
